<mxfile host="app.diagrams.net" modified="2023-04-11T17:56:30.818Z" agent="Mozilla/5.0 (Windows NT 10.0; Win64; x64) AppleWebKit/537.36 (KHTML, like Gecko) Chrome/111.0.0.0 Safari/537.36" etag="RVwUVc5-_xA0pnRpQcWj" version="21.1.5" type="github">
  <diagram id="prtHgNgQTEPvFCAcTncT" name="Page-1">
    <mxGraphModel dx="1562" dy="822" grid="1" gridSize="10" guides="1" tooltips="1" connect="1" arrows="1" fold="1" page="1" pageScale="1" pageWidth="827" pageHeight="1169" math="0" shadow="0">
      <root>
        <mxCell id="0" />
        <mxCell id="1" parent="0" />
        <mxCell id="Gtt6rLP48w7G-FCoQ5SL-24" value="" style="edgeStyle=orthogonalEdgeStyle;rounded=0;orthogonalLoop=1;jettySize=auto;html=1;" edge="1" parent="1" source="Gtt6rLP48w7G-FCoQ5SL-7" target="Gtt6rLP48w7G-FCoQ5SL-22">
          <mxGeometry relative="1" as="geometry" />
        </mxCell>
        <mxCell id="Gtt6rLP48w7G-FCoQ5SL-29" value="" style="edgeStyle=orthogonalEdgeStyle;rounded=0;orthogonalLoop=1;jettySize=auto;html=1;exitX=0.5;exitY=1;exitDx=0;exitDy=0;" edge="1" parent="1" source="Gtt6rLP48w7G-FCoQ5SL-7" target="Gtt6rLP48w7G-FCoQ5SL-27">
          <mxGeometry relative="1" as="geometry" />
        </mxCell>
        <mxCell id="Gtt6rLP48w7G-FCoQ5SL-32" value="" style="edgeStyle=orthogonalEdgeStyle;rounded=0;orthogonalLoop=1;jettySize=auto;html=1;" edge="1" parent="1" source="Gtt6rLP48w7G-FCoQ5SL-7" target="Gtt6rLP48w7G-FCoQ5SL-30">
          <mxGeometry relative="1" as="geometry" />
        </mxCell>
        <mxCell id="Gtt6rLP48w7G-FCoQ5SL-35" value="" style="edgeStyle=orthogonalEdgeStyle;rounded=0;orthogonalLoop=1;jettySize=auto;html=1;exitX=0.5;exitY=1;exitDx=0;exitDy=0;" edge="1" parent="1" source="Gtt6rLP48w7G-FCoQ5SL-7" target="Gtt6rLP48w7G-FCoQ5SL-33">
          <mxGeometry relative="1" as="geometry" />
        </mxCell>
        <mxCell id="Gtt6rLP48w7G-FCoQ5SL-7" value="" style="swimlane;startSize=0;" vertex="1" parent="1">
          <mxGeometry x="410" y="340" width="120" height="35" as="geometry">
            <mxRectangle x="340" y="330" width="50" height="40" as="alternateBounds" />
          </mxGeometry>
        </mxCell>
        <mxCell id="Gtt6rLP48w7G-FCoQ5SL-8" value="&lt;font style=&quot;font-size: 18px;&quot;&gt;深搜通框架&lt;/font&gt;" style="text;html=1;align=center;verticalAlign=middle;resizable=0;points=[];autosize=1;strokeColor=none;fillColor=none;" vertex="1" parent="Gtt6rLP48w7G-FCoQ5SL-7">
          <mxGeometry x="5" y="-5" width="110" height="40" as="geometry" />
        </mxCell>
        <mxCell id="Gtt6rLP48w7G-FCoQ5SL-22" value="" style="swimlane;startSize=0;" vertex="1" parent="1">
          <mxGeometry x="480" y="445" width="120" height="35" as="geometry">
            <mxRectangle x="340" y="330" width="50" height="40" as="alternateBounds" />
          </mxGeometry>
        </mxCell>
        <mxCell id="Gtt6rLP48w7G-FCoQ5SL-23" value="&lt;span style=&quot;font-size: 18px;&quot;&gt;网站选择&lt;/span&gt;" style="text;html=1;align=center;verticalAlign=middle;resizable=0;points=[];autosize=1;strokeColor=none;fillColor=none;" vertex="1" parent="Gtt6rLP48w7G-FCoQ5SL-22">
          <mxGeometry x="10" y="-5" width="100" height="40" as="geometry" />
        </mxCell>
        <mxCell id="Gtt6rLP48w7G-FCoQ5SL-27" value="" style="swimlane;startSize=0;" vertex="1" parent="1">
          <mxGeometry x="620" y="445" width="120" height="35" as="geometry">
            <mxRectangle x="340" y="330" width="50" height="40" as="alternateBounds" />
          </mxGeometry>
        </mxCell>
        <mxCell id="Gtt6rLP48w7G-FCoQ5SL-28" value="&lt;span style=&quot;font-size: 18px;&quot;&gt;分类查询&lt;/span&gt;" style="text;html=1;align=center;verticalAlign=middle;resizable=0;points=[];autosize=1;strokeColor=none;fillColor=none;" vertex="1" parent="Gtt6rLP48w7G-FCoQ5SL-27">
          <mxGeometry x="10" y="-5" width="100" height="40" as="geometry" />
        </mxCell>
        <mxCell id="Gtt6rLP48w7G-FCoQ5SL-30" value="" style="swimlane;startSize=0;" vertex="1" parent="1">
          <mxGeometry x="340" y="445" width="120" height="35" as="geometry">
            <mxRectangle x="340" y="330" width="50" height="40" as="alternateBounds" />
          </mxGeometry>
        </mxCell>
        <mxCell id="Gtt6rLP48w7G-FCoQ5SL-31" value="&lt;span style=&quot;font-size: 18px;&quot;&gt;功能建议&lt;/span&gt;" style="text;html=1;align=center;verticalAlign=middle;resizable=0;points=[];autosize=1;strokeColor=none;fillColor=none;" vertex="1" parent="Gtt6rLP48w7G-FCoQ5SL-30">
          <mxGeometry x="10" y="-5" width="100" height="40" as="geometry" />
        </mxCell>
        <mxCell id="Gtt6rLP48w7G-FCoQ5SL-33" value="" style="swimlane;startSize=0;" vertex="1" parent="1">
          <mxGeometry x="200" y="445" width="120" height="35" as="geometry">
            <mxRectangle x="340" y="330" width="50" height="40" as="alternateBounds" />
          </mxGeometry>
        </mxCell>
        <mxCell id="Gtt6rLP48w7G-FCoQ5SL-34" value="&lt;font style=&quot;font-size: 18px;&quot;&gt;插件上传&lt;/font&gt;" style="text;html=1;align=center;verticalAlign=middle;resizable=0;points=[];autosize=1;strokeColor=none;fillColor=none;" vertex="1" parent="Gtt6rLP48w7G-FCoQ5SL-33">
          <mxGeometry x="10" y="-5" width="100" height="40" as="geometry" />
        </mxCell>
      </root>
    </mxGraphModel>
  </diagram>
</mxfile>
